<svg xmlns="http://www.w3.org/2000/svg" width="480" height="436" class="">
    <defs>
        <style/>
    </defs>
    <style>@keyframes animation-gauge{0%{stroke-dasharray:0 329}}@keyframes animation-rainbow{0%,to{color:#7f00ff;fill:#7f00ff}14%{color:#a933ff;fill:#a933ff}29%{color:#007fff;fill:#007fff}43%{color:#00ff7f;fill:#00ff7f}57%{color:#ff0;fill:#ff0}71%{color:#ff7f00;fill:#ff7f00}86%{color:red;fill:red}}code,svg{color:#777}svg{font-family:-apple-system,BlinkMacSystemFont,Segoe UI,Helvetica,Arial,sans-serif,Apple Color Emoji,Segoe UI Emoji}h2,h3{margin:8px 0 2px;padding:0;color:#0366d6;font-weight:400}h2 svg,h3 svg{fill:currentColor}h2{font-size:16px}h3,svg{font-size:14px}section&gt;.field{margin-left:5px;margin-right:5px}.field{display:flex;align-items:center;margin-bottom:2px;white-space:nowrap}.field svg{margin:0 8px;fill:#959da5;flex-shrink:0}.row{display:flex;flex-wrap:wrap}.row section{flex:1 1 0}.margin-bottom{margin-bottom:16px}.margin-lr-auto{margin-left:auto;margin-right:auto}code{background-color:#7777771f;display:inline-block;border-radius:6px;padding:1px 5px;font-size:80%;font-family:SFMono-Regular,Consolas,Liberation Mono,Menlo,monospace}:root{--color-calendar-graph-day-bg:#ebedf0;--color-calendar-graph-day-border:rgba(27,31,35,0.06);--color-calendar-graph-day-L1-bg:#9be9a8;--color-calendar-graph-day-L2-bg:#40c463;--color-calendar-graph-day-L3-bg:#30a14e;--color-calendar-graph-day-L4-bg:#216e39;--color-calendar-halloween-graph-day-L1-bg:#ffee4a;--color-calendar-halloween-graph-day-L2-bg:#ffc501;--color-calendar-halloween-graph-day-L3-bg:#fe9600;--color-calendar-halloween-graph-day-L4-bg:#03001c;--color-calendar-winter-graph-day-L1-bg:#0a3069;--color-calendar-winter-graph-day-L2-bg:#0969da;--color-calendar-winter-graph-day-L3-bg:#54aeff;--color-calendar-winter-graph-day-L4-bg:#b6e3ff;--color-calendar-graph-day-L4-border:rgba(27,31,35,0.06);--color-calendar-graph-day-L3-border:rgba(27,31,35,0.06);--color-calendar-graph-day-L2-border:rgba(27,31,35,0.06);--color-calendar-graph-day-L1-border:rgba(27,31,35,0.06)}#metrics-end{width:100%}</style>
    <style/>
    <foreignObject x="0" y="0" width="100%" height="100%">
        <div xmlns="http://www.w3.org/1999/xhtml" xmlns:xlink="http://www.w3.org/1999/xlink" class="items-wrapper">
            <section>
                <h2 class="field">
                    <svg xmlns="http://www.w3.org/2000/svg" viewBox="0 0 16 16" width="16" height="16">
                        <path fill-rule="evenodd" d="M2.75 1.5a.25.25 0 00-.25.25v12.5c0 .138.112.25.25.25h10.5a.25.25 0 00.25-.25V4.664a.25.25 0 00-.073-.177l-2.914-2.914a.25.25 0 00-.177-.073H2.75zM1 1.75C1 .784 1.784 0 2.75 0h7.586c.464 0 .909.184 1.237.513l2.914 2.914c.329.328.513.773.513 1.237v9.586A1.75 1.75 0 0113.25 16H2.75A1.75 1.75 0 011 14.25V1.75zm7 1.5a.75.75 0 01.75.75v1.5h1.5a.75.75 0 010 1.5h-1.5v1.5a.75.75 0 01-1.5 0V7h-1.5a.75.75 0 010-1.5h1.5V4A.75.75 0 018 3.25zm-3 8a.75.75 0 01.75-.75h4.5a.75.75 0 010 1.5h-4.5a.75.75 0 01-.75-.75z"/>
                    </svg>
                    Lines of code pushed
                </h2>
                <div class="row margin-bottom">
                    <h3 class="margin-lr-auto">Diff history</h3>
                    <svg xmlns="http://www.w3.org/2000/svg" width="480" height="315">
                        <g transform="translate(0,276)" fill="none" font-size="10" font-family="sans-serif" text-anchor="middle">
                            <path class="domain" stroke="currentColor" d="M39.5,6V0.5H441.5V6"/>
                            <g class="tick" opacity="1" transform="translate(47.33116883116884,0)">
                                <line stroke="currentColor" y2="6"/>
                                <text fill="currentColor" y="9" dy="0.71em" transform="translate(-5,5) rotate(-45)" style="text-anchor: end;">July</text>
                            </g>
                            <g class="tick" opacity="1" transform="translate(74.3051948051948,0)">
                                <line stroke="currentColor" y2="6"/>
                                <text fill="currentColor" y="9" dy="0.71em" transform="translate(-5,5) rotate(-45)" style="text-anchor: end;">August</text>
                            </g>
                            <g class="tick" opacity="1" transform="translate(101.27922077922076,0)">
                                <line stroke="currentColor" y2="6"/>
                                <text fill="currentColor" y="9" dy="0.71em" transform="translate(-5,5) rotate(-45)" style="text-anchor: end;">September</text>
                            </g>
                            <g class="tick" opacity="1" transform="translate(127.38311688311688,0)">
                                <line stroke="currentColor" y2="6"/>
                                <text fill="currentColor" y="9" dy="0.71em" transform="translate(-5,5) rotate(-45)" style="text-anchor: end;">October</text>
                            </g>
                            <g class="tick" opacity="1" transform="translate(154.35714285714286,0)">
                                <line stroke="currentColor" y2="6"/>
                                <text fill="currentColor" y="9" dy="0.71em" transform="translate(-5,5) rotate(-45)" style="text-anchor: end;">November</text>
                            </g>
                            <g class="tick" opacity="1" transform="translate(180.46103896103895,0)">
                                <line stroke="currentColor" y2="6"/>
                                <text fill="currentColor" y="9" dy="0.71em" transform="translate(-5,5) rotate(-45)" style="text-anchor: end;">December</text>
                            </g>
                            <g class="tick" opacity="1" transform="translate(207.43506493506493,0)">
                                <line stroke="currentColor" y2="6"/>
                                <text fill="currentColor" y="9" dy="0.71em" transform="translate(-5,5) rotate(-45)" style="text-anchor: end;">2026</text>
                            </g>
                            <g class="tick" opacity="1" transform="translate(234.4090909090909,0)">
                                <line stroke="currentColor" y2="6"/>
                                <text fill="currentColor" y="9" dy="0.71em" transform="translate(-5,5) rotate(-45)" style="text-anchor: end;">February</text>
                            </g>
                            <g class="tick" opacity="1" transform="translate(258.77272727272725,0)">
                                <line stroke="currentColor" y2="6"/>
                                <text fill="currentColor" y="9" dy="0.71em" transform="translate(-5,5) rotate(-45)" style="text-anchor: end;">March</text>
                            </g>
                            <g class="tick" opacity="1" transform="translate(285.74675324675326,0)">
                                <line stroke="currentColor" y2="6"/>
                                <text fill="currentColor" y="9" dy="0.71em" transform="translate(-5,5) rotate(-45)" style="text-anchor: end;">April</text>
                            </g>
                            <g class="tick" opacity="1" transform="translate(311.85064935064935,0)">
                                <line stroke="currentColor" y2="6"/>
                                <text fill="currentColor" y="9" dy="0.71em" transform="translate(-5,5) rotate(-45)" style="text-anchor: end;">May</text>
                            </g>
                            <g class="tick" opacity="1" transform="translate(338.82467532467535,0)">
                                <line stroke="currentColor" y2="6"/>
                                <text fill="currentColor" y="9" dy="0.71em" transform="translate(-5,5) rotate(-45)" style="text-anchor: end;">June</text>
                            </g>
                            <g class="tick" opacity="1" transform="translate(364.92857142857144,0)">
                                <line stroke="currentColor" y2="6"/>
                                <text fill="currentColor" y="9" dy="0.71em" transform="translate(-5,5) rotate(-45)" style="text-anchor: end;">July</text>
                            </g>
                            <g class="tick" opacity="1" transform="translate(391.90259740259745,0)">
                                <line stroke="currentColor" y2="6"/>
                                <text fill="currentColor" y="9" dy="0.71em" transform="translate(-5,5) rotate(-45)" style="text-anchor: end;">August</text>
                            </g>
                            <g class="tick" opacity="1" transform="translate(418.8766233766234,0)">
                                <line stroke="currentColor" y2="6"/>
                                <text fill="currentColor" y="9" dy="0.71em" transform="translate(-5,5) rotate(-45)" style="text-anchor: end;">September</text>
                            </g>
                        </g>
                        <g transform="translate(39,0)" fill="none" font-size="10" font-family="sans-serif" text-anchor="end">
                            <path class="domain" stroke="currentColor" d="M-6,5.5H0.5V276.5H-6"/>
                            <g class="tick" opacity="1" transform="translate(0,37.45422589026441)">
                                <line stroke="currentColor" x2="-6"/>
                                <text fill="currentColor" x="-9" dy="0.32em">15k</text>
                            </g>
                            <g class="tick" opacity="1" transform="translate(0,71.96948392684294)">
                                <line stroke="currentColor" x2="-6"/>
                                <text fill="currentColor" x="-9" dy="0.32em">10k</text>
                            </g>
                            <g class="tick" opacity="1" transform="translate(0,106.48474196342147)">
                                <line stroke="currentColor" x2="-6"/>
                                <text fill="currentColor" x="-9" dy="0.32em">5.0k</text>
                            </g>
                            <g class="tick" opacity="1" transform="translate(0,141)">
                                <line stroke="currentColor" x2="-6"/>
                                <text fill="currentColor" x="-9" dy="0.32em">0.0</text>
                            </g>
                            <g class="tick" opacity="1" transform="translate(0,175.51525803657853)">
                                <line stroke="currentColor" x2="-6"/>
                                <text fill="currentColor" x="-9" dy="0.32em">−5.0k</text>
                            </g>
                            <g class="tick" opacity="1" transform="translate(0,210.03051607315706)">
                                <line stroke="currentColor" x2="-6"/>
                                <text fill="currentColor" x="-9" dy="0.32em">−10k</text>
                            </g>
                            <g class="tick" opacity="1" transform="translate(0,244.5457741097356)">
                                <line stroke="currentColor" x2="-6"/>
                                <text fill="currentColor" x="-9" dy="0.32em">−15k</text>
                            </g>
                        </g>
                        <path d="M39,140.5L51.182,140.5L57.273,140.5L63.364,140.5L69.455,140.5L75.545,140.5L81.636,140.5L154.727,140.5L166.909,140.5L179.091,140.5L221.727,140.5L227.818,140.5L233.909,140.5L246.091,140.5L252.182,140.5L264.364,140.5L276.545,140.5L282.636,140.5L288.727,140.5L294.818,140.5L300.909,140.5L307,140.5L313.091,140.5L319.182,140.5L325.273,140.5L331.364,140.5L337.455,140.5L343.545,140.5L355.727,140.5L361.818,140.5L367.909,140.5L374,140.5L380.091,140.5L386.182,140.5L392.273,140.5L398.364,140.5L404.455,140.5L410.545,140.5L416.636,140.5L422.727,140.5L428.818,140.5L434.909,140.5L441,140.5L441,140.072L434.909,136.186L428.818,137.987L422.727,138.719L416.636,137.801L410.545,139.064L404.455,130.967L398.364,139.119L392.273,135.012L386.182,138.691L380.091,127.888L374,137.67L367.909,115L361.818,5L355.727,139.644L343.545,132.285L337.455,106.917L331.364,115.946L325.273,133.286L319.182,90.722L313.091,130.042L307,99.268L300.909,127.094L294.818,130.491L288.727,129.013L282.636,110.872L276.545,139.057L264.364,137.38L252.182,139.941L246.091,51.499L233.909,140.403L227.818,130.325L221.727,140.465L179.091,136.089L166.909,140.493L154.727,134.915L81.636,121.351L75.545,67.949L69.455,139.244L63.364,137.773L57.273,128.199L51.182,140.169L39,138.546Z" fill="rgb(63, 185, 80)"/>
                        <path d="M39,140.5L51.182,140.5L57.273,140.5L63.364,140.5L69.455,140.5L75.545,140.5L81.636,140.5L154.727,140.5L166.909,140.5L179.091,140.5L221.727,140.5L227.818,140.5L233.909,140.5L246.091,140.5L252.182,140.5L264.364,140.5L276.545,140.5L282.636,140.5L288.727,140.5L294.818,140.5L300.909,140.5L307,140.5L313.091,140.5L319.182,140.5L325.273,140.5L331.364,140.5L337.455,140.5L343.545,140.5L355.727,140.5L361.818,140.5L367.909,140.5L374,140.5L380.091,140.5L386.182,140.5L392.273,140.5L398.364,140.5L404.455,140.5L410.545,140.5L416.636,140.5L422.727,140.5L428.818,140.5L434.909,140.5L441,140.5L441,140.811L434.909,141.639L428.818,143.013L422.727,142.757L416.636,142.688L410.545,141.922L404.455,143.51L398.364,141.901L392.273,142.702L386.182,142.792L380.091,150.44L374,142.343L367.909,146.361L361.818,176.044L355.727,140.804L343.545,145.898L337.455,155.148L331.364,155.908L325.273,143.413L319.182,184.921L313.091,146.582L307,150.295L300.909,140.721L294.818,142.619L288.727,146.968L282.636,149.895L276.545,140.521L264.364,142.122L252.182,141.066L246.091,142.737L233.909,140.679L227.818,140.666L221.727,140.507L179.091,141.701L166.909,140.507L154.727,140.507L81.636,143.178L75.545,183.899L69.455,141.232L63.364,142.136L57.273,145.463L51.182,140.562L39,140.507Z" fill="rgb(218, 54, 51)"/>
                    </svg>
                </div>
            </section>
        </div>
        <div xmlns="http://www.w3.org/1999/xhtml" id="metrics-end"></div>
    </foreignObject>
</svg>